<?xml version="1.0" encoding="UTF-8" standalone="no"?>
<!DOCTYPE svg PUBLIC "-//W3C//DTD SVG 1.1//EN" "http://www.w3.org/Graphics/SVG/1.1/DTD/svg11.dtd">
<svg width="100%" height="100%" viewBox="0 0 95 73" version="1.1" xmlns="http://www.w3.org/2000/svg" xmlns:xlink="http://www.w3.org/1999/xlink" xml:space="preserve" xmlns:serif="http://www.serif.com/" style="fill-rule:evenodd;clip-rule:evenodd;stroke-linejoin:round;stroke-miterlimit:2;">
    <g transform="matrix(1,0,0,1,0,0.00058694)">
        <g transform="matrix(0.13333,0,0,-0.13333,0,72.52)">
            <path d="M637.25,393.984L637.25,131.594C637.25,94.102 617.758,76.875 582.488,76.875L486.57,76.875C451.313,76.875 431.824,94.102 431.824,131.594L431.824,393.984L150.707,393.984L150.707,543.918L77.223,543.918L77.223,393.984L0,393.984L0,319.758L77.223,319.758L77.223,133.098C77.223,52.844 131.184,3.398 205.438,3.398L243.668,3.398L245.164,77.598L205.438,77.598C170.215,77.598 150.707,96.348 150.707,133.098L150.707,319.758L358.34,319.758L358.34,131.594C358.34,52.117 413.84,3.398 486.57,3.398L582.488,3.398C655.238,3.398 710.707,52.118 710.707,131.594L710.707,393.984L637.25,393.984" style="fill:rgb(110,199,46);fill-rule:nonzero;"/>
        </g>
    </g>
</svg>
