<svg xmlns="http://www.w3.org/2000/svg" width="450.187" height="72.52"><path d="M637.25 393.984v-262.39c0-37.492-19.492-54.719-54.762-54.719H486.57c-35.257 0-54.746 17.227-54.746 54.719v262.39H150.707v149.934H77.223V393.984H0v-74.226h77.223v-186.66c0-80.254 53.961-129.7 128.215-129.7h38.23l1.496 74.2h-39.726c-35.223 0-54.731 18.75-54.731 55.5v186.66H358.34V131.594c0-79.477 55.5-128.196 128.23-128.196h95.918c72.75 0 128.219 48.72 128.219 128.196v262.39H637.25" style="fill:#6ec72e;fill-opacity:1;fill-rule:nonzero;stroke:none" transform="matrix(.13333 0 0 -.13333 0 72.52)"/><path d="M918.457 264c-23.406 0-32.465 14.867-32.465 36.766v79.308h-25.176v11.571h25.176v34.761l12.567 3.012v-37.773h39.046v-11.571h-39.046v-78.812c0-14.856 4.023-25.449 20.918-25.449 6.796 0 13.086 1.042 19.882 2.296V267.02c-7.039-1.512-13.836-3.02-20.902-3.02m149.803 61.676h-96.17c.258-14.598 5.027-28.172 13.082-37.75 7.058-8.324 16.878-13.348 30.478-13.348 11.08 0 20.65 4.043 27.44 11.082 4.54 4.774 8.06 10.324 9.56 17.871h13.08c-1.76-10.836-7.03-19.652-14.08-26.429-9.05-9.055-21.65-14.602-36-14.602-18.13 0-30.966 7.551-40.045 17.848-10.324 12.086-16.101 28.718-16.101 47.851 0 15.856 2.508 31.473 12.328 44.809 10.578 14.351 25.184 21.898 42.798 21.898 33.99 0 53.89-29.203 53.89-60.914 0-3.031-.26-5.265-.26-8.316m-53.63 57.394c-25.935 0-42.282-20.882-42.282-45.789h83.322c-.49 23.91-15.36 45.789-41.04 45.789m135.21-120.57c-15.61 0-28.21 6.02-37.01 14.852-13.1 13.082-17.64 29.953-17.64 51.375 0 21.367 4.54 38.238 17.64 51.347 8.8 8.805 21.4 14.832 37.01 14.832 26.18 0 45.57-17.093 48.59-42.566h-13.09c-2.79 17.402-16.38 30.226-35.5 30.226-12.1 0-21.41-4.007-27.96-10.808-11.32-11.813-13.85-26.692-13.85-43.031 0-16.403 2.53-31.469 13.85-43.321 6.55-6.785 15.86-10.562 27.96-10.562 19.38 0 32.71 13.578 35.76 30.691h13.33c-3.27-24.418-22.67-43.035-49.09-43.035m170.16 3.266v82.32c0 21.902-9.56 34.984-32.48 34.984-30.95 0-41.79-27.164-41.79-54.343v-62.961h-12.59v181.773h12.59V368.48c7.04 16.133 24.93 26.426 42.55 26.426 28.94 0 44.32-17.855 44.32-46.058v-83.082H1320m146.79 0v82.32c0 21.902-9.56 34.48-32.49 34.48-30.97 0-41.77-26.66-41.77-53.839v-62.961h-12.6v125.879h11.08l1.52-22.899c7.05 15.867 24.93 26.16 42.54 26.16 28.96 0 44.31-17.855 44.31-46.058v-83.082h-12.59m58.92 178.48h17.61v-17.605h-17.61zm2.27-52.601h13.34V265.766h-13.34v125.879M1673.5 277.59c-9.06-10.063-24.17-15.09-40.79-15.09-17.11 0-31.72 5.273-41.29 16.121-7.04 8.035-10.08 15.074-10.57 25.422h12.83c.75-7.59 4.03-14.109 9.33-19.398 7.28-7.055 17.61-10.067 29.7-10.067 13.11 0 23.42 3.012 29.72 9.301 4.51 4.543 6.78 8.816 6.78 16.117 0 11.332-8.05 20.902-23.15 22.91l-24.43 3.282c-10.31 1.25-21.4 4.539-28.45 12.578-4.53 5.289-7.05 11.843-7.05 19.918 0 10.062 4.29 18.367 10.83 24.386 9.07 8.356 21.4 11.836 34.5 11.836 15.09 0 29.44-4.761 38.01-14.832 5.78-6.804 9.32-15.129 9.58-23.156h-12.6c-.49 4.02-2.27 10.328-6.29 15.09-5.8 6.805-15.62 11.062-28.7 11.062-9.83 0-17.12-1.726-22.67-5.757-6.28-4.543-9.81-10.594-9.81-17.368 0-10.586 5.29-18.644 24.41-21.179l23.91-3.278c23.67-3.246 34.76-19.371 34.76-34.722 0-9.34-3.01-16.887-8.56-23.176m91.39-15.09c-15.61 0-28.19 6.02-36.99 14.852-13.11 13.082-17.65 29.953-17.65 51.375 0 21.367 4.54 38.238 17.65 51.347 8.8 8.805 21.38 14.832 36.99 14.832 26.18 0 45.56-17.093 48.59-42.566h-13.07c-2.78 17.402-16.37 30.226-35.52 30.226-12.08 0-21.41-4.007-27.96-10.808-11.31-11.813-13.83-26.692-13.83-43.031 0-16.403 2.52-31.469 13.83-43.321 6.55-6.785 15.88-10.562 27.96-10.562 19.38 0 32.74 13.578 35.75 30.691h13.35c-3.29-24.418-22.67-43.035-49.1-43.035m170.18 3.266v82.32c0 21.902-9.57 34.984-32.49 34.984-30.97 0-41.77-27.164-41.77-54.343v-62.961h-12.62v181.773h12.62V368.48c7.03 16.133 24.9 26.426 42.52 26.426 28.98 0 44.33-17.855 44.33-46.058v-83.082h-12.59m157.86 59.91h-96.16c.24-14.598 5.02-28.172 13.07-37.75 7.06-8.324 16.89-13.348 30.47-13.348 11.07 0 20.65 4.043 27.45 11.082 4.52 4.774 8.05 10.324 9.56 17.871h13.1c-1.77-10.836-7.07-19.652-14.11-26.429-9.07-9.055-21.65-14.602-36-14.602-18.15 0-30.96 7.551-40.02 17.848-10.32 12.086-16.13 28.718-16.13 47.851 0 15.856 2.52 31.473 12.34 44.809 10.58 14.351 25.17 21.898 42.81 21.898 33.99 0 53.87-29.203 53.87-60.914 0-3.031-.25-5.265-.25-8.316m-53.62 57.394c-25.94 0-42.3-20.882-42.3-45.789h83.33c-.51 23.91-15.36 45.789-41.03 45.789m231.37-117.047-1.52 22.915c-7.05-16.125-24.92-26.196-42.55-26.196-28.95 0-44.31 17.879-44.31 46.074v83.086h12.59v-82.336c0-21.894 9.56-34.488 32.49-34.488 30.94 0 41.78 26.68 41.78 53.871v62.953h12.6V266.023h-11.08m147.8-.257v82.32c0 21.902-9.58 34.48-32.49 34.48-30.97 0-41.81-26.66-41.81-53.839v-62.961h-12.57v125.879h11.07l1.5-22.899c7.06 15.867 24.95 26.16 42.56 26.16 28.96 0 44.31-17.855 44.31-46.058v-83.082h-12.57m58.91 178.48h17.62v-17.605h-17.62zm2.26-52.601h13.32V265.766h-13.32v125.879m105.5-125.879h-12.86l-49.83 125.879h14.34l42.31-108 40.51 108h13.37l-47.84-125.879m172.92 59.91h-96.16c.24-14.598 5.03-28.172 13.08-37.75 7.04-8.324 16.88-13.348 30.45-13.348 11.11 0 20.66 4.043 27.45 11.082 4.54 4.774 8.06 10.324 9.56 17.871h13.1c-1.76-10.836-7.04-19.652-14.09-26.429-9.08-9.055-21.67-14.602-36.02-14.602-18.11 0-30.97 7.551-40.01 17.848-10.33 12.086-16.11 28.718-16.11 47.851 0 15.856 2.5 31.473 12.33 44.809 10.59 14.351 25.18 21.898 42.79 21.898 33.99 0 53.88-29.203 53.88-60.914 0-3.031-.25-5.265-.25-8.316m-53.63 57.394c-25.9 0-42.29-20.882-42.29-45.789h83.34c-.5 23.91-15.36 45.789-41.05 45.789m144.02-2.25c-31.49 0-40.02-28.191-40.02-54.632v-60.422h-12.61v125.879h11.07l1.54-25.415c5.52 17.372 22.38 26.68 40.02 26.68 4.02 0 8.3 0 12.34-.758v-12.597c-4.04 1.019-8.32 1.265-12.34 1.265m122.09-103.23c-9.04-10.063-24.15-15.09-40.79-15.09-17.09 0-31.71 5.273-41.29 16.121-7.06 8.035-10.05 15.074-10.55 25.422h12.82c.76-7.59 4.04-14.109 9.33-19.398 7.28-7.055 17.61-10.067 29.69-10.067 13.12 0 23.43 3.012 29.7 9.301 4.55 4.543 6.82 8.816 6.82 16.117 0 11.332-8.05 20.902-23.18 22.91l-24.42 3.282c-10.33 1.25-21.4 4.539-28.43 12.578-4.52 5.289-7.05 11.843-7.05 19.918 0 10.062 4.27 18.367 10.81 24.386 9.07 8.356 21.4 11.836 34.48 11.836 15.13 0 29.47-4.761 38.05-14.832 5.8-6.804 9.3-15.129 9.55-23.156h-12.59c-.5 4.02-2.25 10.328-6.28 15.09-5.82 6.805-15.6 11.062-28.73 11.062-9.81 0-17.1-1.726-22.64-5.757-6.29-4.543-9.82-10.594-9.82-17.368 0-10.586 5.3-18.644 24.39-21.179l23.95-3.278c23.67-3.246 34.75-19.371 34.75-34.722 0-9.34-3.03-16.887-8.57-23.176m46.6 166.656h17.61v-17.605h-17.61zm2.25-52.601h13.36V265.766h-13.36v125.879M3122.38 264c-23.41 0-32.49 14.867-32.49 36.766v79.308h-25.16v11.571h25.16v34.761l12.58 3.012v-37.773h39.03v-11.571h-39.03v-78.812c0-14.856 4.03-25.449 20.9-25.449 6.81 0 13.09 1.042 19.92 2.296V267.02c-7.06-1.512-13.86-3.02-20.91-3.02m152.58.988c-15.62 0-19.91 11.34-19.91 24.696-6.8-17.887-25.93-27.184-45.32-27.184-24.4 0-43.32 14.602-43.32 38.762 0 22.398 17.38 35.754 42.34 37.504l46.3 3.297v12.324c0 20.91-14.11 28.683-33.23 28.683-19.88 0-34.99-9.039-36.26-27.672h-12.58c1.78 25.422 21.65 39.508 48.84 39.508 17.12 0 35.75-5.781 42.56-23.148 3.01-7.805 3.26-15.852 3.26-24.18V290.18c0-8.563 1.27-13.578 9.83-13.578 1.5 0 2.26 0 3.52.253v-11.089c-3.03-.493-3.03-.778-6.03-.778m-19.91 65.473-45.06-2.781c-18.64-1.227-30.71-11.039-30.71-26.418 0-18.125 13.59-27.196 31.45-27.196 31.73 0 44.32 25.684 44.32 49.86zm-63.42 108.012h15.08v-15.856h-15.08zm46.3 0h15.35v-15.856h-15.35zM3355.48 264c-23.41 0-32.49 14.867-32.49 36.766v79.308h-25.17v11.571h25.17v34.761l12.59 3.012v-37.773h39.02v-11.571h-39.02v-78.812c0-14.856 4.02-25.449 20.92-25.449 6.77 0 13.08 1.042 19.88 2.296V267.02c-7.05-1.512-13.86-3.02-20.9-3.02M965.793 3.266l-1.496 22.148C957.48 9.804 939.359 0 922.488 0c-14.336 0-25.168 4.512-33.48 11.824-14.102 12.324-20.645 32.489-20.645 54.114 0 20.648 6.309 40.8 19.641 53.386 8.305 8.039 19.641 13.11 34.226 13.11 17.899 0 35.25-10.082 42.067-24.45v77.043h12.566V3.266Zm-17.117 107c-6.289 6.027-14.848 9.812-26.446 9.812-11.832 0-20.378-4.277-26.925-11.086-9.832-10.555-14.106-26.687-14.106-42.781 0-17.898 5.028-34.758 16.617-45.082 6.305-5.54 14.348-8.816 24.95-8.816 11.062 0 19.363 4.05 25.652 10.097 11.34 11.031 16.129 26.414 16.129 43.8 0 18.63-4.281 33.224-15.871 44.056m158.604-95.172C1098.47 6.289 1086.15 0 1070.54 0c-15.62 0-27.94 6.29-36.79 15.094-13.08 13.082-17.84 29.695-17.84 51.117 0 21.39 4.76 38.027 17.84 51.102 8.85 8.824 21.17 15.121 36.79 15.121 15.61 0 27.93-6.297 36.74-15.121 13.1-13.075 17.88-29.711 17.88-51.102 0-21.422-4.78-38.035-17.88-51.117m-9.05 93.898c-6.54 6.809-15.62 11.086-27.69 11.086-12.07 0-21.16-4.277-27.7-11.086-11.33-11.836-14.1-26.43-14.1-42.781 0-16.363 2.77-30.984 14.1-42.813 6.54-6.804 15.63-11.085 27.7-11.085 12.07 0 21.15 4.28 27.69 11.085 11.34 11.829 14.08 26.45 14.08 42.813 0 16.352-2.74 30.945-14.08 42.781m118.57 9.336c-31.48 0-40.03-28.223-40.03-54.66V3.266h-12.59V129.16h11.06l1.53-25.453c5.54 17.391 22.4 26.703 40.03 26.703 4.03 0 8.31 0 12.34-.777v-12.582c-4.03 1.008-8.31 1.277-12.34 1.277m84.52-116.844c-23.4 0-32.47 14.88-32.47 36.77v79.324h-25.17v11.582h25.17v34.727l12.6 3.043v-37.77h39.02v-11.582h-39.02V38.754c0-14.832 3.99-25.418 20.9-25.418 6.79 0 13.09.988 19.87 2.254V4.512c-7.04-1.504-13.85-3.028-20.9-3.028m214.78 1.782v82.32c0 21.91-8.07 34.98-29.98 34.98-9.56 0-16.61-3.253-22.4-8.554-9.82-9.317-14.85-22.383-14.85-37.524V3.266h-12.84v82.32c0 21.91-8.31 34.98-30.21 34.98-9.57 0-16.88-3.253-22.42-8.554-11.33-10.512-15.1-27.942-15.1-45.801V3.266h-12.58V129.16h11.08l1.5-21.664c6.55 14.344 20.15 24.938 38.25 24.938 21.94 0 34.76-10.829 39.8-27.207 6.55 15.597 19.89 27.207 40.54 27.207 29.45 0 41.8-19.141 41.8-46.094V3.266h-12.59m145.78.246-1.54 22.91c-7.05-16.11-24.91-26.203-42.54-26.203-28.96 0-44.31 17.894-44.31 46.11v83.058h12.59V47.07c0-21.902 9.57-34.488 32.48-34.488 30.97 0 41.78 26.691 41.78 53.871v62.934h12.6V3.512h-11.06m147.77-.246v82.32c0 21.91-9.57 34.492-32.46 34.492-30.98 0-41.81-26.687-41.81-53.867V3.266h-12.58V129.16h11.07l1.51-22.926c7.06 15.868 24.93 26.2 42.55 26.2 28.97 0 44.33-17.907 44.33-46.094V3.266h-12.61m146.04 0-1.52 22.148C1947.39 9.804 1929.25 0 1912.36 0c-14.34 0-25.16 4.512-33.49 11.824-14.09 12.324-20.63 32.489-20.63 54.114 0 20.648 6.31 40.8 19.66 53.386 8.31 8.039 19.61 13.11 34.22 13.11 17.88 0 35.27-10.082 42.05-24.45v77.043h12.6V3.266Zm-17.15 107c-6.29 6.027-14.84 9.812-26.42 9.812-11.83 0-20.39-4.277-26.94-11.086-9.81-10.555-14.11-26.687-14.11-42.781 0-17.898 5.06-34.758 16.61-45.082 6.31-5.54 14.37-8.816 24.95-8.816 11.07 0 19.38 4.05 25.67 10.097 11.33 11.031 16.13 26.414 16.13 43.8 0 18.63-4.29 33.224-15.89 44.056" style="fill:#231f20;fill-opacity:1;fill-rule:nonzero;stroke:none" transform="matrix(.13333 0 0 -.13333 0 72.52)"/></svg>